<?xml version="1.0" standalone="no"?>
<!DOCTYPE svg PUBLIC "-//W3C//DTD SVG 20010904//EN"
 "http://www.w3.org/TR/2001/REC-SVG-20010904/DTD/svg10.dtd">
<svg version="1.0" xmlns="http://www.w3.org/2000/svg"
 width="35.93" height="32" viewBox="0 0 300.000000 300.000000"
 preserveAspectRatio="xMidYMid meet">
<metadata>
Created by potrace 1.10, written by Peter Selinger 2001-2011
</metadata>
<g transform="translate(0.000000,300.000000) scale(0.100000,-0.100000)"
fill="#000000" stroke="none">
<path d="M563 1878 c-31 -15 -37 -39 -34 -138 2 -101 -18 -146 -69 -157 -38
-7 -38 -19 0 -26 51 -11 70 -55 70 -169 0 -116 8 -128 81 -128 27 0 49 5 49
10 0 6 -19 10 -42 10 -69 0 -73 7 -70 108 3 94 -6 133 -39 168 -19 20 -19 21
1 39 29 27 43 88 35 164 -8 84 4 104 65 105 25 1 45 6 48 14 5 15 -63 15 -95
0z"/>
<path d="M2362 1878 c3 -8 22 -13 45 -14 22 0 45 -4 51 -8 8 -5 12 -40 12
-100 0 -103 12 -151 42 -167 19 -10 19 -12 -8 -41 -28 -28 -29 -34 -32 -136
-2 -59 -8 -113 -14 -119 -6 -7 -30 -13 -54 -13 -24 0 -44 -4 -44 -10 0 -5 22
-10 49 -10 71 0 81 18 81 141 0 90 2 100 26 128 16 19 35 31 50 31 13 0 24 5
24 10 0 6 -9 10 -21 10 -11 0 -34 13 -50 29 -28 29 -29 32 -29 131 0 94 -2
103 -25 125 -18 19 -35 25 -65 25 -29 0 -40 -4 -38 -12z"/>
<path d="M944 1816 c-9 -24 4 -48 23 -44 12 2 18 12 18 28 0 29 -32 41 -41 16z"/>
<path d="M1198 1678 c2 -74 8 -138 14 -145 12 -15 78 -18 78 -3 0 6 -11 15
-25 20 -25 9 -25 10 -25 135 0 123 0 125 -22 125 -23 0 -23 -1 -20 -132z"/>
<path d="M1290 1691 c0 -149 7 -171 55 -171 39 0 50 24 15 33 -19 5 -20 14
-20 131 l0 126 -25 0 -25 0 0 -119z"/>
<path d="M695 1660 c0 -138 0 -140 23 -140 22 0 22 1 22 140 0 139 0 140 -23
140 -22 0 -23 -1 -22 -140z"/>
<path d="M760 1780 c0 -16 7 -20 30 -20 48 0 80 -39 80 -95 0 -77 -29 -115
-86 -115 -15 0 -24 -6 -24 -15 0 -21 64 -20 101 2 53 31 74 124 43 189 -27 56
-144 100 -144 54z"/>
<path d="M1660 1660 l0 -140 25 0 25 0 0 140 0 140 -25 0 -25 0 0 -140z"/>
<path d="M1726 1791 c-11 -18 3 -31 33 -31 16 0 40 -11 55 -25 21 -19 26 -33
26 -70 0 -69 -21 -102 -72 -112 -60 -12 -62 -33 -3 -33 40 0 52 5 80 33 62 62
54 170 -15 218 -32 23 -95 35 -104 20z"/>
<path d="M940 1625 l0 -105 25 0 25 0 0 105 0 105 -25 0 -25 0 0 -105z"/>
<path d="M1038 1719 c-9 -5 -15 -16 -12 -23 4 -11 11 -11 33 -3 49 18 61 6 61
-68 0 -49 -4 -67 -15 -71 -8 -4 -15 -12 -15 -20 0 -17 12 -18 28 -2 9 9 15 9
24 0 7 -7 15 -12 20 -12 14 0 -4 174 -20 193 -17 19 -76 23 -104 6z"/>
<path d="M1417 1704 c-46 -46 -45 -116 3 -164 11 -11 27 -20 35 -20 21 0 19
26 -5 50 -12 12 -20 33 -20 55 0 22 8 43 20 55 23 23 26 50 6 50 -7 0 -25 -12
-39 -26z"/>
<path d="M1490 1715 c0 -8 9 -24 20 -35 12 -12 20 -33 20 -54 0 -18 -9 -45
-20 -59 -33 -42 -23 -60 21 -37 24 13 49 61 49 95 0 14 -7 39 -15 55 -22 43
-75 68 -75 35z"/>
<path d="M1936 1699 c-36 -43 -36 -106 0 -149 24 -27 32 -31 72 -28 29 2 49 9
56 20 15 24 4 30 -33 17 -25 -9 -36 -8 -56 5 -32 21 -35 86 -5 116 11 11 20
27 20 35 0 25 -27 17 -54 -16z"/>
<path d="M2010 1719 c0 -7 11 -22 25 -35 36 -33 31 -44 -20 -44 -33 0 -45 -4
-45 -15 0 -12 14 -15 65 -15 59 0 65 2 65 20 0 29 -27 78 -49 90 -26 13 -41
13 -41 -1z"/>
<path d="M2110 1728 c2 -25 78 -212 85 -211 18 4 16 47 -8 128 -21 73 -25 80
-50 83 -15 2 -27 2 -27 0z"/>
<path d="M2261 1708 c-22 -59 -44 -166 -37 -183 10 -26 19 -12 54 85 17 47 33
93 37 103 6 13 2 17 -19 17 -18 0 -29 -7 -35 -22z"/>
<path d="M1042 1638 c-41 -20 -43 -94 -3 -115 34 -16 45 -6 27 23 -24 35 -20
63 9 70 28 7 34 34 8 33 -10 0 -28 -5 -41 -11z"/>
<path d="M2154 1371 l-29 -80 -35 29 -35 29 35 30 c19 16 32 32 28 36 -7 8
-88 -53 -88 -66 0 -5 19 -23 43 -41 25 -19 42 -39 39 -47 -3 -8 1 -12 8 -9 7
2 27 44 46 93 37 97 38 105 25 105 -4 0 -21 -36 -37 -79z"/>
<path d="M1018 1401 c-15 -21 -12 -101 3 -101 8 0 14 54 10 88 -1 6 3 12 9 12
5 0 10 5 10 10 0 16 -18 11 -32 -9z"/>
<path d="M2200 1410 c0 -6 14 -23 30 -37 l31 -25 -33 -25 c-31 -22 -39 -42
-16 -35 14 4 78 56 78 63 0 3 -20 20 -45 38 -25 18 -45 27 -45 21z"/>
<path d="M865 1393 c-4 -12 2 -25 21 -39 29 -24 26 -45 -6 -37 -11 3 -20 0
-20 -6 0 -14 43 -14 57 0 8 8 13 8 17 0 10 -16 41 -14 56 4 20 24 4 65 -25 65
-13 0 -28 -7 -33 -16 -7 -13 -13 -14 -31 -4 -25 13 -23 37 3 32 9 -2 16 2 16
8 0 17 -47 11 -55 -7z m112 -39 c8 -21 -13 -42 -28 -27 -13 13 -5 43 11 43 6
0 13 -7 17 -16z"/>
<path d="M1058 1393 c-8 -37 6 -88 27 -92 17 -3 17 -1 6 12 -7 9 -12 26 -11
39 3 39 0 58 -9 58 -5 0 -10 -8 -13 -17z"/>
<path d="M1440 1355 l0 -55 45 0 c45 0 45 0 45 35 0 24 5 35 15 35 10 0 15
-11 15 -35 0 -19 5 -35 10 -35 14 0 12 78 -2 82 -18 6 -58 -3 -58 -13 0 -5
-11 -9 -25 -9 -18 0 -25 5 -25 19 0 14 6 17 25 13 15 -2 25 0 25 7 0 6 -16 11
-35 11 l-35 0 0 -55z m70 -19 c0 -7 -11 -16 -25 -18 -19 -4 -25 -1 -25 13 0
14 7 19 25 19 15 0 25 -6 25 -14z"/>
<path d="M1196 1378 c-18 -52 -20 -54 -24 -25 -2 15 -10 27 -18 27 -8 0 -14
-11 -15 -27 l-1 -28 -11 28 c-13 32 -31 37 -22 5 4 -13 9 -31 12 -41 7 -26 27
-15 34 19 l6 29 4 -29 c6 -42 25 -43 39 -1 12 36 8 77 -4 43z"/>
<path d="M1230 1380 c-12 -8 -11 -10 8 -10 16 0 22 -6 22 -23 0 -27 -9 -39
-22 -31 -5 3 -3 13 4 22 11 13 11 14 -2 10 -8 -2 -15 -13 -15 -24 0 -14 7 -19
28 -20 24 -1 27 3 27 30 0 29 -15 56 -29 56 -4 0 -13 -5 -21 -10z"/>
<path d="M1606 1378 c-9 -5 -16 -19 -16 -32 0 -27 24 -51 41 -40 7 4 10 2 7
-7 -3 -8 -12 -13 -22 -11 -9 2 -16 -2 -16 -8 0 -6 12 -10 28 -8 25 3 27 7 30
54 3 44 0 52 -16 56 -11 3 -27 1 -36 -4z m34 -33 c0 -16 -6 -25 -15 -25 -15 0
-21 31 -8 43 13 14 23 6 23 -18z"/>
<path d="M1953 1383 c-13 -2 -23 -12 -23 -21 -1 -16 -2 -15 -11 1 -5 9 -21 17
-33 17 -14 0 -27 -8 -31 -17 -6 -17 -7 -17 -16 0 -6 9 -21 17 -34 17 -17 0
-25 -6 -25 -17 -1 -17 -1 -17 -14 0 -7 9 -25 17 -40 17 -24 0 -26 -3 -26 -40
0 -22 5 -40 10 -40 6 0 10 16 10 36 0 45 24 42 28 -4 3 -33 22 -45 22 -14 1
16 1 16 11 0 11 -20 44 -24 54 -8 4 6 -5 10 -19 10 -19 0 -26 5 -26 19 0 23
15 35 32 25 8 -5 6 -10 -8 -15 -17 -7 -16 -8 6 -8 14 -1 31 -10 38 -21 13 -21
47 -27 57 -10 4 6 -5 10 -19 10 -19 0 -26 5 -26 19 0 23 15 35 32 25 8 -5 6
-10 -8 -15 -16 -6 -15 -8 9 -8 20 -1 27 -6 27 -21 0 -11 5 -20 10 -20 6 0 10
16 10 35 0 26 3 33 15 29 9 -4 15 0 15 10 0 9 -1 15 -2 15 -2 -1 -13 -4 -25
-6z"/>
<path d="M1290 1340 c0 -22 5 -40 10 -40 6 0 10 16 10 35 0 46 27 49 32 3 2
-28 8 -34 31 -36 32 -4 37 15 5 20 -12 2 -23 8 -25 15 -3 9 4 10 27 3 29 -8
31 -7 28 13 -3 19 -10 22 -60 24 l-58 3 0 -40z"/>
<path d="M1670 1340 c0 -22 5 -40 10 -40 6 0 10 18 10 40 0 22 -4 40 -10 40
-5 0 -10 -18 -10 -40z"/>
</g>
</svg>
